<svg width="24" height="24" viewBox="0 0 24 24" fill="none" xmlns="http://www.w3.org/2000/svg">
<path d="M7 5C7 4.44772 7.44772 4 8 4H13C13.5523 4 14 4.44772 14 5C14 5.55228 13.5523 6 13 6H8C7.44772 6 7 5.55228 7 5Z" fill="#B2B7B9"/>
<path d="M8 7C7.44772 7 7 7.44772 7 8C7 8.55228 7.44772 9 8 9H13C13.5523 9 14 8.55228 14 8C14 7.44772 13.5523 7 13 7H8Z" fill="#B2B7B9"/>
<path d="M7 11C7 10.4477 7.44772 10 8 10H13C13.5523 10 14 10.4477 14 11C14 11.5523 13.5523 12 13 12H8C7.44772 12 7 11.5523 7 11Z" fill="#B2B7B9"/>
<path d="M5 6C5.55228 6 6 5.55228 6 5C6 4.44772 5.55228 4 5 4C4.44772 4 4 4.44772 4 5C4 5.55228 4.44772 6 5 6Z" fill="#B2B7B9"/>
<path d="M6 8C6 8.55228 5.55228 9 5 9C4.44772 9 4 8.55228 4 8C4 7.44772 4.44772 7 5 7C5.55228 7 6 7.44772 6 8Z" fill="#B2B7B9"/>
<path d="M5 12C5.55228 12 6 11.5523 6 11C6 10.4477 5.55228 10 5 10C4.44772 10 4 10.4477 4 11C4 11.5523 4.44772 12 5 12Z" fill="#B2B7B9"/>
<path fill-rule="evenodd" clip-rule="evenodd" d="M17 3V14.6591C17 14.8052 16.936 14.9441 16.825 15.0391L15.8174 15.9007C15.7058 15.9961 15.558 16.0359 15.4119 16.021C15.2765 16.0071 15.1391 16 15 16C12.7909 16 11 17.7909 11 20C11 20.3453 11.0438 20.6804 11.126 21C11.2604 21.5222 11.4977 22.0032 11.8149 22.42C11.9822 22.64 11.8373 23 11.5609 23H3C1.89543 23 1 22.1046 1 21V3C1 1.89543 1.89543 1 3 1H15C16.1046 1 17 1.89543 17 3ZM3 3L15 3V13.9681L14.9626 14.0001C11.6661 14.0203 9 16.6988 9 20C9 20.3407 9.02848 20.6748 9.08314 21H3V3Z" fill="#B2B7B9"/>
<path d="M21.6839 17.2295C22.0869 16.8518 22.1073 16.219 21.7295 15.8161C21.3518 15.4131 20.719 15.3927 20.3161 15.7705L15.5951 20.1963L13.6 18.7C13.1582 18.3686 12.5314 18.4582 12.2 18.9C11.8686 19.3418 11.9582 19.9686 12.4 20.3L14.8652 22.1489C15.3701 22.5275 16.0739 22.4889 16.5343 22.0573L21.6839 17.2295Z" fill="#B2B7B9"/>
</svg>
