<svg width="24" height="24" viewBox="0 0 24 24" fill="none" xmlns="http://www.w3.org/2000/svg">
<path fill-rule="evenodd" clip-rule="evenodd" d="M2.00009 4.37499C2.00011 2.49076 3.55488 1 5.42701 1H16.3484C18.2205 1 19.7753 2.49077 19.7753 4.37501V10.9063C19.7753 11.4586 19.3276 11.9063 18.7753 11.9063C18.223 11.9063 17.7753 11.4586 17.7753 10.9063V4.37501C17.7753 3.63588 17.157 3 16.3484 3H5.42701C4.61846 3 4.0001 3.63588 4.00009 4.375L4 18.625C4 19.3641 4.61835 20 5.42691 20H10.2807C10.833 20 11.2807 20.4477 11.2807 21C11.2807 21.5523 10.833 22 10.2807 22H5.4269C3.55476 22 1.99999 20.5092 2 18.625L2.00009 4.37499ZM6.24748 6.75001C6.24748 6.19773 6.6952 5.75001 7.24748 5.75001H14.5282C15.0805 5.75001 15.5282 6.19773 15.5282 6.75001C15.5282 7.3023 15.0805 7.75001 14.5282 7.75001H7.24748C6.6952 7.75001 6.24748 7.3023 6.24748 6.75001ZM6.24748 10.3125C6.24748 9.76024 6.6952 9.31252 7.24748 9.31252H14.5282C15.0805 9.31252 15.5282 9.76024 15.5282 10.3125C15.5282 10.8648 15.0805 11.3125 14.5282 11.3125H7.24748C6.6952 11.3125 6.24748 10.8648 6.24748 10.3125ZM6.24748 13.875C6.24748 13.3227 6.6952 12.875 7.24748 12.875H10.8879C11.4401 12.875 11.8879 13.3227 11.8879 13.875C11.8879 14.4273 11.4401 14.875 10.8879 14.875H7.24748C6.6952 14.875 6.24748 14.4273 6.24748 13.875ZM21.7147 14.3629C22.101 14.7576 22.0942 15.3907 21.6994 15.777L16.8456 20.5272C16.4569 20.9076 15.8355 20.9076 15.4467 20.5273L13.2221 18.3502C12.8274 17.9639 12.8205 17.3308 13.2068 16.936C13.5931 16.5413 14.2262 16.5345 14.6209 16.9208L16.1462 18.4134L20.3006 14.3476C20.6953 13.9614 21.3284 13.9682 21.7147 14.3629Z" fill="#B2B7B9"/>
</svg>
