<svg width="24" height="24" viewBox="0 0 24 24" fill="none" xmlns="http://www.w3.org/2000/svg">
<path fill-rule="evenodd" clip-rule="evenodd" d="M4 1C2.89551 1 2 1.89542 2 3V21C2 22.1046 2.89551 23 4 23H12.8254C13.0096 23 13.1028 22.7639 12.9818 22.6249C12.37 21.9224 12 21.0045 12 20C12 17.7909 13.791 16 16 16C16.1869 16 16.3702 16.0128 16.55 16.0375C16.6082 16.0455 16.6673 16.0291 16.712 15.991L17.86 15.0091C17.9488 14.9331 18 14.8221 18 14.7051V3C18 1.89542 17.1045 1 16 1H4ZM8 3C7.44727 3 7 3.44772 7 4C7 4.55228 7.44727 5 8 5H15C15.5527 5 16 4.55228 16 4C16 3.44772 15.5527 3 15 3H8ZM7 8C7 7.44772 7.44727 7 8 7H15C15.5527 7 16 7.44772 16 8C16 8.55228 15.5527 9 15 9H8C7.44727 9 7 8.55228 7 8ZM8 11C7.44727 11 7 11.4477 7 12C7 12.5523 7.44727 13 8 13H15C15.5527 13 16 12.5523 16 12C16 11.4477 15.5527 11 15 11H8ZM6 4C6 4.55228 5.55273 5 5 5C4.44727 5 4 4.55228 4 4C4 3.44772 4.44727 3 5 3C5.55273 3 6 3.44772 6 4ZM5 9C5.55273 9 6 8.55228 6 8C6 7.44772 5.55273 7 5 7C4.44727 7 4 7.44772 4 8C4 8.55228 4.44727 9 5 9ZM6 12C6 12.5523 5.55228 13 5 13C4.44772 13 4 12.5523 4 12C4 11.4477 4.44772 11 5 11C5.55228 11 6 11.4477 6 12Z" fill="#B2B7B9"/>
<path d="M22.6839 17.2295C23.0869 16.8518 23.1073 16.219 22.7295 15.8161C22.3518 15.4131 21.719 15.3927 21.3161 15.7705L16.5951 20.1963L14.6 18.7C14.1582 18.3686 13.5314 18.4582 13.2 18.9C12.8686 19.3418 12.9582 19.9686 13.4 20.3L15.8652 22.1489C16.3701 22.5275 17.0739 22.4889 17.5343 22.0573L22.6839 17.2295Z" fill="#B2B7B9"/>
</svg>
