<svg width="24" height="24" viewBox="0 0 24 24" fill="none" xmlns="http://www.w3.org/2000/svg">
<path d="M6 5.31538C5.58579 5.31538 5.25 5.65634 5.25 6.07692C5.25 6.49751 5.58579 6.83846 6 6.83846H18C18.4142 6.83846 18.75 6.49751 18.75 6.07692C18.75 5.65634 18.4142 5.31538 18 5.31538H6Z" fill="#B2B7B9"/>
<path d="M5.25 9.12308C5.25 8.70249 5.58579 8.36154 6 8.36154H18C18.4142 8.36154 18.75 8.70249 18.75 9.12308C18.75 9.54366 18.4142 9.88462 18 9.88462H6C5.58579 9.88462 5.25 9.54366 5.25 9.12308Z" fill="#B2B7B9"/>
<path d="M13.5 11.1538C13.2239 11.1538 13 11.3811 13 11.6615V18.7692C13 19.0496 13.2239 19.2769 13.5 19.2769H18.5C18.7761 19.2769 19 19.0496 19 18.7692V11.6615C19 11.3811 18.7761 11.1538 18.5 11.1538H13.5Z" fill="#B2B7B9"/>
<path d="M5.25 12.1692C5.25 11.7486 5.58579 11.4077 6 11.4077H11C11.4142 11.4077 11.75 11.7486 11.75 12.1692C11.75 12.5898 11.4142 12.9308 11 12.9308H6C5.58579 12.9308 5.25 12.5898 5.25 12.1692Z" fill="#B2B7B9"/>
<path d="M5.25 18.2615C5.25 17.841 5.58579 17.5 6 17.5H11C11.4142 17.5 11.75 17.841 11.75 18.2615C11.75 18.6821 11.4142 19.0231 11 19.0231H6C5.58579 19.0231 5.25 18.6821 5.25 18.2615Z" fill="#B2B7B9"/>
<path d="M5.25 15.2154C5.25 14.7948 5.58579 14.4538 6 14.4538H11C11.4142 14.4538 11.75 14.7948 11.75 15.2154C11.75 15.636 11.4142 15.9769 11 15.9769H6C5.58579 15.9769 5.25 15.636 5.25 15.2154Z" fill="#B2B7B9"/>
<path fill-rule="evenodd" clip-rule="evenodd" d="M2 2.01538C2 1.4546 2.44772 1 3 1H21C21.5523 1 22 1.4546 22 2.01538V21.9846C22 22.5454 21.5523 23 21 23H3C2.44772 23 2 22.5454 2 21.9846V2.01538ZM4 20.9692V3.03077H20V20.9692H4Z" fill="#B2B7B9"/>
</svg>
