<svg width="24" height="24" viewBox="0 0 24 24" fill="none" xmlns="http://www.w3.org/2000/svg">
<path d="M9 14.5036C9 13.941 8.55228 13.485 8 13.485C7.44772 13.485 7 13.941 7 14.5036V17.5595C7 18.1221 7.44772 18.5781 8 18.5781C8.55228 18.5781 9 18.1221 9 17.5595V14.5036Z" fill="#B2B7B9"/>
<path d="M12 13.485C12.5523 13.485 13 13.941 13 14.5036V17.5595C13 18.1221 12.5523 18.5781 12 18.5781C11.4477 18.5781 11 18.1221 11 17.5595V14.5036C11 13.941 11.4477 13.485 12 13.485Z" fill="#B2B7B9"/>
<path d="M17 14.5036C17 13.941 16.5523 13.485 16 13.485C15.4477 13.485 15 13.941 15 14.5036V17.5595C15 18.1221 15.4477 18.5781 16 18.5781C16.5523 18.5781 17 18.1221 17 17.5595V14.5036Z" fill="#B2B7B9"/>
<path fill-rule="evenodd" clip-rule="evenodd" d="M10.5182 3.16215L8.13143 7.37316H15.8866L13.4999 3.16217C13.2237 2.67497 13.3876 2.05198 13.8659 1.77069C14.3442 1.48941 14.9558 1.65633 15.2319 2.14354L18.196 7.37316H20.5C21.8807 7.37316 23 8.5133 23 9.91974C23 11.2533 21.9938 12.3474 20.7125 12.4573L19.5336 20.7744C19.4637 21.2675 19.0416 21.634 18.5435 21.634H5.45649C4.95842 21.634 4.53628 21.2675 4.46638 20.7744L3.28748 12.4573C2.00624 12.3474 1 11.2533 1 9.91974C1 8.5133 2.11929 7.37316 3.5 7.37316H5.82203L8.78613 2.14352C9.06227 1.65632 9.67387 1.48939 10.1522 1.77067C10.6305 2.05196 10.7943 2.67495 10.5182 3.16215ZM20.5 9.41043H3.5C3.22386 9.41043 3 9.63846 3 9.91974C3 10.2007 3.22332 10.4285 3.49901 10.4291L20.5 10.4291C20.7757 10.4285 21 10.2007 21 9.91974C21 9.63846 20.7761 9.41043 20.5 9.41043ZM6.3202 19.5968L5.30951 12.4663H18.6905L17.6798 19.5968H6.3202Z" fill="#B2B7B9"/>
</svg>
