<svg width="24" height="24" viewBox="0 0 24 24" fill="none" xmlns="http://www.w3.org/2000/svg">
<path fill-rule="evenodd" clip-rule="evenodd" d="M1 5.06667C1 3.86142 2.02549 3 3.14286 3H7.53502C8.99125 3 10.4005 3.53928 11.4498 4.51862L11.5512 4.61323C11.6043 4.60453 11.6587 4.6 11.7143 4.6C11.7698 4.6 11.8243 4.60453 11.8774 4.61323L11.9787 4.51862C13.028 3.53928 14.4373 3 15.8935 3H20.8571C21.9745 3 23 3.86142 23 5.06667V16.2667C23 17.4719 21.9745 18.3333 20.8571 18.3333H16.465C15.4964 18.3333 14.5801 18.6931 13.9148 19.3141L12.3966 20.7311C12.0124 21.0896 11.4162 21.0896 11.032 20.7311L9.51377 19.3141C8.84836 18.693 7.93261 18.3333 6.96411 18.3333H3.14186C2.02333 18.3333 1 17.4708 1 16.2667V5.06667ZM10.7143 6.56789L10.0852 5.98073C9.41987 5.35977 8.50363 5 7.53502 5H3.14286C3.08131 5 3.03925 5.02276 3.01705 5.04347C3.00618 5.05363 3.00189 5.0615 3.00065 5.06424L2.99999 5.06637L3 16.2667L3.00074 16.2696C3.00201 16.2724 3.00626 16.2802 3.01699 16.2903C3.03882 16.3107 3.08042 16.3333 3.14186 16.3333H6.96411C8.34582 16.3333 9.68466 16.8188 10.7143 17.7049V6.56789ZM12.7143 17.7049V6.56789L13.3434 5.98073C14.0087 5.35977 14.9249 5 15.8935 5H20.8571C20.9187 5 20.9608 5.02276 20.9829 5.04347C20.9938 5.05363 20.9981 5.0615 20.9994 5.06424L21 5.06637L21 16.2667L20.9994 16.2691C20.9981 16.2718 20.9938 16.2797 20.9829 16.2899C20.9608 16.3106 20.9187 16.3333 20.8571 16.3333H16.465C15.0834 16.3333 13.744 16.8188 12.7143 17.7049Z" fill="#B2B7B9"/>
</svg>
