<svg width="24" height="24" viewBox="0 0 24 24" fill="none" xmlns="http://www.w3.org/2000/svg">
<path fill-rule="evenodd" clip-rule="evenodd" d="M6.00297 1.5C6.55566 1.5 7.00371 1.94507 7.00371 2.49408V3.12958H16.8235V2.49408C16.8235 1.94507 17.2716 1.5 17.8243 1.5C18.377 1.5 18.825 1.94507 18.825 2.49408V3.21166C20.6459 3.58487 22.0149 5.18659 22.0149 7.10591L22.0149 18.5237C22.0149 20.7197 20.2227 22.5 18.0119 22.5H6.01786C3.80708 22.5 2.01488 20.7197 2.01488 18.5237V7.10591C2.01488 5.25843 3.28327 3.70523 5.00222 3.25869V2.49408C5.00222 1.94507 5.45027 1.5 6.00297 1.5ZM5.99296 5.11789C4.89904 5.13114 4.01637 6.01613 4.01637 7.10591V18.5237C4.01637 19.6217 4.91247 20.5118 6.01786 20.5118H18.0119C19.1173 20.5118 20.0134 19.6217 20.0134 18.5237L20.0134 7.10591C20.0134 6.00788 19.1173 5.11774 18.0119 5.11774C14.7162 5.11774 7.67229 5.09756 5.99296 5.11789ZM6.00297 8C6.00297 7.45098 6.45102 7.00592 7.00371 7.00592L17.0112 7.01183C17.5639 7.01183 18.0119 7.4569 18.0119 8.00592C18.0119 8.55493 17.5639 9 17.0112 9L7.00371 8.99408C6.45102 8.99408 6.00297 8.54902 6.00297 8Z" fill="#B2B7B9"/>
</svg>
