<svg width="24" height="24" viewBox="0 0 24 24" fill="none" xmlns="http://www.w3.org/2000/svg">
<path fill-rule="evenodd" clip-rule="evenodd" d="M14.5 18C15.9437 18 17.2853 17.563 18.3997 16.814L21.2929 19.7071C21.6834 20.0976 22.3166 20.0976 22.7071 19.7071C23.0976 19.3166 23.0976 18.6834 22.7071 18.2929L19.8858 15.4716C20.8938 14.2589 21.5 12.7002 21.5 11C21.5 7.13401 18.366 4 14.5 4C10.634 4 7.5 7.13401 7.5 11C7.5 14.866 10.634 18 14.5 18ZM14.5 16C17.2614 16 19.5 13.7614 19.5 11C19.5 8.23858 17.2614 6 14.5 6C11.7386 6 9.5 8.23858 9.5 11C9.5 13.7614 11.7386 16 14.5 16Z" fill="#B2B7B9"/>
<path d="M2 5C1.44772 5 1 5.44772 1 6C1 6.55228 1.44772 7 2 7H6.5C7.05228 7 7.5 6.55228 7.5 6C7.5 5.44772 7.05228 5 6.5 5H2Z" fill="#B2B7B9"/>
<path d="M1 11C1 10.4477 1.44772 10 2 10H4.5C5.05228 10 5.5 10.4477 5.5 11C5.5 11.5523 5.05228 12 4.5 12H2C1.44772 12 1 11.5523 1 11Z" fill="#B2B7B9"/>
<path d="M2 15C1.44772 15 1 15.4477 1 16C1 16.5523 1.44772 17 2 17H6.5C7.05228 17 7.5 16.5523 7.5 16C7.5 15.4477 7.05228 15 6.5 15H2Z" fill="#B2B7B9"/>
</svg>
