<svg width="24" height="24" viewBox="0 0 24 24" fill="none" xmlns="http://www.w3.org/2000/svg">
<path d="M3 2C3 1.44772 2.55228 1 2 1C1.44772 1 1 1.44772 1 2V23H22C22.5523 23 23 22.5523 23 22C23 21.4477 22.5523 21 22 21H3V2Z" fill="#B2B7B9"/>
<path d="M12 3C11.4477 3 11 3.44772 11 4V19H15V4C15 3.44772 14.5523 3 14 3H12Z" fill="#B2B7B9"/>
<path d="M18 12C17.4477 12 17 12.4477 17 13V19H21V13C21 12.4477 20.5523 12 20 12H18Z" fill="#B2B7B9"/>
<path d="M5 10C5 9.44772 5.44772 9 6 9H8C8.55228 9 9 9.44771 9 10V19H5V10Z" fill="#B2B7B9"/>
</svg>
