<svg width="24" height="24" viewBox="0 0 24 24" fill="none" xmlns="http://www.w3.org/2000/svg">
<path fill-rule="evenodd" clip-rule="evenodd" d="M4.22213 4.22189C8.51766 -0.073637 15.4828 -0.073637 19.7783 4.22189C24.0739 8.51741 24.0739 15.4826 19.7783 19.7781C15.4828 24.0736 8.51766 24.0736 4.22213 19.7781C-0.0733929 15.4826 -0.0733929 8.51741 4.22213 4.22189ZM18.3641 5.6361C14.8497 2.12162 9.15082 2.12162 5.63634 5.6361C2.12187 9.15058 2.12187 14.8494 5.63634 18.3639C9.15082 21.8784 14.8497 21.8784 18.3641 18.3639C21.8786 14.8494 21.8786 9.15058 18.3641 5.6361ZM8.46519 8.46382C8.85575 8.07333 9.48892 8.07339 9.87941 8.46395L12.0002 10.5852L14.1211 8.46395C14.5116 8.07339 15.1447 8.07333 15.5353 8.46382C15.9258 8.85431 15.9259 9.48748 15.5354 9.87804L13.4143 11.9995L15.5354 14.1209C15.9259 14.5115 15.9258 15.1447 15.5353 15.5352C15.1447 15.9257 14.5116 15.9256 14.1211 15.535L12.0002 13.4138L9.87941 15.535C9.48892 15.9256 8.85575 15.9257 8.46519 15.5352C8.07464 15.1447 8.07458 14.5115 8.46507 14.1209L10.5861 11.9995L8.46507 9.87804C8.07458 9.48748 8.07464 8.85431 8.46519 8.46382Z" fill="#B2B7B9"/>
</svg>
