<svg width="24" height="24" viewBox="0 0 24 24" fill="none" xmlns="http://www.w3.org/2000/svg">
<path fill-rule="evenodd" clip-rule="evenodd" d="M8.70708 7.29316C8.51848 7.111 8.26588 7.01021 8.00368 7.01249C7.74148 7.01477 7.49067 7.11994 7.30526 7.30535C7.11985 7.49075 7.01469 7.74157 7.01241 8.00376C7.01013 8.26596 7.11092 8.51856 7.29308 8.70716L10.5861 12.0002L7.29308 15.2932C7.19757 15.3854 7.12139 15.4958 7.06898 15.6178C7.01657 15.7398 6.98898 15.871 6.98783 16.0038C6.98668 16.1365 7.01198 16.2682 7.06226 16.3911C7.11254 16.514 7.18679 16.6257 7.28069 16.7196C7.37458 16.8135 7.48623 16.8877 7.60913 16.938C7.73202 16.9883 7.8637 17.0136 7.99648 17.0124C8.12926 17.0113 8.26048 16.9837 8.38249 16.9313C8.50449 16.8789 8.61483 16.8027 8.70708 16.7072L12.0001 13.4142L15.2931 16.7072C15.4817 16.8893 15.7343 16.9901 15.9965 16.9878C16.2587 16.9856 16.5095 16.8804 16.6949 16.695C16.8803 16.5096 16.9855 16.2588 16.9878 15.9966C16.99 15.7344 16.8892 15.4818 16.7071 15.2932L13.4141 12.0002L16.7071 8.70716C16.8892 8.51856 16.99 8.26596 16.9878 8.00376C16.9855 7.74157 16.8803 7.49075 16.6949 7.30535C16.5095 7.11994 16.2587 7.01477 15.9965 7.01249C15.7343 7.01021 15.4817 7.111 15.2931 7.29316L12.0001 10.5862L8.70708 7.29316Z" fill="#B2B7B9"/>
</svg>
