<svg width="24" height="24" viewBox="0 0 24 24" fill="none" xmlns="http://www.w3.org/2000/svg">
<path d="M10.8581 8.39283C10.7695 8.65549 10.7079 8.94757 10.6652 9.25596H13.3145C13.2727 8.99251 13.2157 8.73565 13.1385 8.49718C13.0099 8.10023 12.8471 7.82754 12.6711 7.66212C12.5195 7.51955 12.324 7.4213 12 7.4213C11.6467 7.4213 11.4442 7.52008 11.3012 7.64418C11.1374 7.78627 10.9824 8.02455 10.8581 8.39283Z" fill="#B2B7B9"/>
<path fill-rule="evenodd" clip-rule="evenodd" d="M12.5958 1.18529C12.3813 1.08365 12.1549 1 11.9121 1C11.6605 1 11.4283 1.08958 11.2113 1.20431C10.5594 1.54912 9.94138 1.9458 9.27375 2.26571C7.99125 2.88026 6.00045 3.6387 3.0211 4.16029C2.43515 4.26287 1.99946 4.75764 2 5.33881C2.00286 8.4264 2.06372 10.6425 2.47456 12.5573C2.89414 14.513 3.66914 16.1187 5.02376 18.0293C6.8793 20.6464 9.74845 22.3161 11.4931 22.9286C11.7643 23.0238 12.0596 23.0238 12.3308 22.9287C14.0539 22.3242 17.1331 20.6365 18.9813 18.0292C20.3208 16.1395 21.1891 14.5325 21.6343 12.5602C22.074 10.6124 22.0858 8.37338 21.8367 5.24576C21.794 4.70945 21.3822 4.26698 20.8384 4.16358C18.1014 3.64316 16.0952 2.88355 14.7281 2.2587C14.0023 1.92696 13.3156 1.5263 12.5958 1.18529ZM9.04662 7.82577C8.87086 8.34666 8.77622 8.91749 8.72535 9.47002C8.1238 9.77842 7.71426 10.3885 7.71426 11.0906V13.8426C7.71426 14.8559 8.56706 15.6773 9.61904 15.6773H14.381C15.433 15.6773 16.2858 14.8559 16.2858 13.8426V11.0906C16.2858 10.3831 15.87 9.76913 15.2609 9.46303C15.2077 8.96531 15.1157 8.4411 14.9568 7.95075C14.7759 7.39215 14.4863 6.80484 14.0015 6.34915C13.4925 5.87061 12.8189 5.58664 12 5.58664C11.2104 5.58664 10.5439 5.83186 10.0262 6.28109C9.52925 6.71234 9.23188 7.27671 9.04662 7.82577Z" fill="#B2B7B9"/>
</svg>
