<svg width="24" height="24" viewBox="0 0 24 24" fill="none" xmlns="http://www.w3.org/2000/svg">
<path fill-rule="evenodd" clip-rule="evenodd" d="M9.04655 8.74311C8.87079 9.264 8.77615 9.83483 8.72528 10.3874C8.12373 10.6958 7.7142 11.3058 7.7142 12.008V14.76C7.7142 15.7732 8.56699 16.5946 9.61897 16.5946H14.3809C15.4329 16.5946 16.2857 15.7732 16.2857 14.76V12.008C16.2857 11.3005 15.8699 10.6865 15.2608 10.3804C15.2076 9.88265 15.1155 9.35844 14.9567 8.86809C14.7758 8.30949 14.4862 7.72218 14.0014 7.26649C13.4924 6.78796 12.8188 6.50398 11.9999 6.50398C11.2103 6.50398 10.5439 6.7492 10.0261 7.19844C9.52918 7.62968 9.23181 8.19406 9.04655 8.74311ZM10.858 9.31018C10.7694 9.57283 10.7078 9.86492 10.6651 10.1733H13.3144C13.2726 9.90985 13.2156 9.65299 13.1384 9.41453C13.0098 9.01757 12.847 8.74489 12.671 8.57947C12.5194 8.43689 12.3239 8.33865 11.9999 8.33865C11.6467 8.33865 11.4441 8.43743 11.3011 8.56152C11.1373 8.70361 10.9823 8.9419 10.858 9.31018Z" fill="#B2B7B9"/>
<path fill-rule="evenodd" clip-rule="evenodd" d="M11.9121 1C11.7052 1 11.5386 1.05871 11.4606 1.08861C11.3676 1.12428 11.2809 1.16747 11.2113 1.20431C11.0902 1.26831 10.9438 1.35484 10.7962 1.44207L10.7397 1.47546C10.39 1.6818 9.91647 1.95771 9.2737 2.26571C7.99121 2.88026 6.00042 3.6387 3.0211 4.16029C2.43514 4.26287 1.99946 4.75764 2 5.3388C2.00286 8.42639 2.06372 10.6425 2.47455 12.5573C2.89413 14.513 3.66913 16.1187 5.02374 18.0293C6.87927 20.6464 9.7484 22.3161 11.493 22.9286C11.7642 23.0238 12.0596 23.0238 12.3308 22.9287C14.0538 22.3242 17.133 20.6365 18.9812 18.0292C20.3207 16.1395 21.189 14.5325 21.6342 12.5602C22.0739 10.6124 22.0857 8.37338 21.8365 5.24576C21.7938 4.70945 21.3821 4.26698 20.8382 4.16357C18.1013 3.64316 16.0951 2.88355 14.728 2.2587C14.0495 1.94856 13.5251 1.6702 13.1303 1.46065L13.1123 1.4511C12.9233 1.35075 12.7426 1.25486 12.5958 1.18529C12.521 1.1499 12.4337 1.11095 12.3438 1.07929C12.2734 1.05451 12.1102 1 11.9121 1ZM4.33991 12.186C3.99523 10.5795 3.91633 8.68009 3.90595 5.86571C6.77213 5.31732 8.76734 4.55751 10.1221 3.90833C10.84 3.56431 11.3695 3.25537 11.7347 3.03988L11.7833 3.01118C11.8407 2.97732 11.8907 2.94778 11.9349 2.9219C12.0082 2.95995 12.095 3.00594 12.1992 3.06122L12.2166 3.07047C12.6147 3.28179 13.1805 3.58212 13.9114 3.9162C15.3127 4.55671 17.3088 5.31616 19.9739 5.86537C20.1789 8.68356 20.1317 10.5808 19.7729 12.1704C19.3997 13.8238 18.6744 15.2083 17.4081 16.9947C15.93 19.0799 13.4265 20.5331 11.9126 21.1185C10.4399 20.5434 8.10301 19.1192 6.59671 16.9946C5.34804 15.2335 4.69699 13.8504 4.33991 12.186Z" fill="#B2B7B9"/>
</svg>
