<svg width="16" height="16" viewBox="0 0 16 16" fill="none" xmlns="http://www.w3.org/2000/svg">
<g clip-path="url(#clip0_23_11452)">
<path fill-rule="evenodd" clip-rule="evenodd" d="M13.0072 2.51156C12.8452 2.44453 12.6671 2.42714 12.4952 2.46159C12.3234 2.49604 12.1657 2.58078 12.0422 2.70505L12.0401 2.70708L3.22793 11.5193L2.75819 13.2418L4.48072 12.7721L13.2929 3.95987L13.2931 3.9597C13.4595 3.79342 13.553 3.56786 13.553 3.33265L13.553 3.33051C13.5535 3.15528 13.5018 2.98386 13.4046 2.83804C13.3074 2.69223 13.1691 2.57859 13.0072 2.51156ZM12.1021 0.50062C12.6626 0.388224 13.2439 0.444967 13.7722 0.663644C14.3004 0.882321 14.7517 1.25306 15.0688 1.72878C15.3857 2.2042 15.5542 2.76303 15.553 3.33437C15.5525 4.09957 15.2482 4.83327 14.707 5.37425L5.70714 14.3741C5.58408 14.4971 5.43103 14.586 5.26313 14.6317L1.59613 15.6317C1.24992 15.7262 0.879668 15.6278 0.625924 15.3741C0.37218 15.1203 0.27385 14.7501 0.368261 14.4039L1.36826 10.7369C1.41405 10.569 1.50286 10.4159 1.62592 10.2929L10.6239 1.2949C10.6243 1.29451 10.6247 1.29413 10.6251 1.29374C11.028 0.888955 11.542 0.61291 12.1021 0.50062ZM15.553 3.33437C15.553 3.33473 15.553 3.33508 15.553 3.33544L14.553 3.33298L15.553 3.3333C15.553 3.33366 15.553 3.33402 15.553 3.33437Z" fill="#B2B7B9"/>
</g>
<defs>
<clipPath id="clip0_23_11452">
<rect width="16" height="16" fill="white"/>
</clipPath>
</defs>
</svg>
