<svg width="24" height="24" viewBox="0 0 24 24" fill="none" xmlns="http://www.w3.org/2000/svg">
<path fill-rule="evenodd" clip-rule="evenodd" d="M3.0001 4.49998C3.00011 2.58169 4.53528 1 6.46158 1H17.5385C19.4648 1 21 2.58174 21 4.50007L20.9997 19.5001C20.9997 21.4184 19.4645 23 17.5382 23L6.46147 23C4.53516 22.9999 2.99999 21.4182 3 19.4999L3.0001 4.49998ZM6.46158 3C5.66901 3 5.0001 3.65688 5.0001 4.49999L5 19.4999C4.99999 20.3431 5.6689 21 6.46148 21L17.5382 21C18.3308 21 18.9997 20.3431 18.9997 19.5L19 4.50003C19 3.6569 18.3311 3 17.5385 3H6.46158ZM7.30799 7C7.30799 6.44772 7.7557 6 8.30799 6H15.6925C16.2447 6 16.6925 6.44772 16.6925 7C16.6925 7.55229 16.2447 8 15.6925 8H8.30799C7.7557 8 7.30799 7.55229 7.30799 7ZM7.30799 10.75C7.30799 10.1977 7.7557 9.75 8.30799 9.75H15.6925C16.2447 9.75 16.6925 10.1977 16.6925 10.75C16.6925 11.3023 16.2447 11.75 15.6925 11.75H8.30799C7.7557 11.75 7.30799 11.3023 7.30799 10.75ZM7.30799 14.5C7.30799 13.9477 7.7557 13.5 8.30799 13.5H12.0002C12.5525 13.5 13.0002 13.9477 13.0002 14.5C13.0002 15.0523 12.5525 15.5 12.0002 15.5H8.30799C7.7557 15.5 7.30799 15.0523 7.30799 14.5Z" fill="#B2B7B9"/>
</svg>
