<svg width="16" height="16" viewBox="0 0 16 16" fill="none" xmlns="http://www.w3.org/2000/svg">
<path fill-rule="evenodd" clip-rule="evenodd" d="M9.0001 11H13.0668C13.6282 11 14.0718 10.5378 13.9906 9.98236C13.789 8.60504 13.1848 6.13983 11.3836 4.57143V2C11.3836 1.44772 10.9359 1 10.3836 1H5.61663C5.06434 1 4.61663 1.44772 4.61663 2V4.57143C2.8154 6.13983 2.21116 8.60504 2.00964 9.98236C1.92836 10.5378 2.372 11 2.93339 11H7.0001V14C7.0001 14.5523 7.44782 15 8.0001 15C8.55238 15 9.0001 14.5523 9.0001 14V11ZM5.93 6.07976L6.61663 5.48188V3H9.38357V5.48188L10.0702 6.07976C10.933 6.831 11.4465 7.95688 11.7412 9H4.25898C4.55369 7.95688 5.06724 6.831 5.93 6.07976Z" fill="#B2B7B9"/>
</svg>
