<svg width="16" height="16" viewBox="0 0 16 16" fill="none" xmlns="http://www.w3.org/2000/svg">
<path fill-rule="evenodd" clip-rule="evenodd" d="M12.1012 5.31297L14.7071 2.70711C15.0976 2.31658 15.0976 1.68342 14.7071 1.29289C14.3166 0.902369 13.6834 0.902369 13.2929 1.29289L11.3836 3.20221V2C11.3836 1.44772 10.9359 1 10.3836 1H5.61663C5.06435 1 4.61663 1.44772 4.61663 2V4.57143C2.8154 6.13983 2.21116 8.60504 2.00964 9.98236C1.92836 10.5378 2.372 11 2.93339 11H3.58579L1.29289 13.2929C0.902369 13.6834 0.902369 14.3166 1.29289 14.7071C1.68342 15.0976 2.31658 15.0976 2.70711 14.7071L6.41421 11H7.0001V14C7.0001 14.5523 7.44782 15 8.0001 15C8.55239 15 9.0001 14.5523 9.0001 14V11H13.0668C13.6282 11 14.0718 10.5378 13.9906 9.98236C13.8186 8.807 13.3533 6.83942 12.1012 5.31297ZM9.38357 5.20222V3H6.61663V5.48188L5.93 6.07976C5.06724 6.831 4.55369 7.95688 4.25898 9H5.58579L9.38357 5.20222ZM8.41421 9L10.6772 6.73704C11.1863 7.41358 11.5235 8.22937 11.7412 9H8.41421Z" fill="#B2B7B9"/>
</svg>
