<svg width="24" height="24" viewBox="0 0 24 24" fill="none" xmlns="http://www.w3.org/2000/svg">
<path fill-rule="evenodd" clip-rule="evenodd" d="M6.15065 2.96804C6.04123 2.96804 5.95253 3.05615 5.95253 3.16484V4.40351H8.84372C9.11778 4.40351 9.37959 4.5163 9.56688 4.71504L12.0123 7.30995H17.6415V3.16484C17.6415 3.05615 17.5528 2.96804 17.4433 2.96804H6.15065ZM19.6226 7.30995V3.16484C19.6226 1.96923 18.6469 1 17.4433 1H6.15065C4.94706 1 3.97136 1.96923 3.97136 3.16484V4.40351H3.17934C1.97623 4.40351 0.999628 5.37168 1 6.56836C1.00029 7.49584 1.00063 8.77663 1.00062 9.67577L1.00053 18.6543C1.00051 20.502 2.50842 22 4.36852 22L18.6317 22C20.4918 22 21.9997 20.5022 21.9997 18.6544L22 9.47485C22 8.27922 21.0243 7.30995 19.8207 7.30995H19.6226ZM3.17934 6.37155C3.06908 6.37155 2.98114 6.45977 2.98117 6.56775C2.98146 7.49523 2.9818 8.7763 2.98179 9.67579L2.9817 18.6543C2.9817 19.4151 3.6026 20.0319 4.36852 20.0319L18.6317 20.032C19.3976 20.032 20.0185 19.4152 20.0185 18.6544L20.0188 9.47479C20.0188 9.3661 19.9301 9.27798 19.8207 9.27798H11.5827C11.3087 9.27798 11.0469 9.1652 10.8596 8.96646L8.41414 6.37155H3.17934Z" fill="#B2B7B9"/>
</svg>
