<svg width="24" height="24" viewBox="0 0 24 24" fill="none" xmlns="http://www.w3.org/2000/svg">
<path fill-rule="evenodd" clip-rule="evenodd" d="M20.5975 8.79563L12 3.86643L3.40245 8.79563L12 13.7248L20.5975 8.79563ZM22.2898 7.59314C23.2367 8.13601 23.2367 9.45524 22.2898 9.99811L19.701 11.4824V17.0326C19.701 17.6929 19.3383 18.304 18.7474 18.6398L13.517 21.6111C12.5747 22.1464 11.3998 22.1279 10.4762 21.5631L5.67655 18.6279C5.11647 18.2854 4.77724 17.6912 4.77724 17.0527L4.77724 11.7565L1.71016 9.99811C0.763283 9.45524 0.763277 8.13601 1.71016 7.59314L11.0068 2.26311C11.6187 1.91229 12.3813 1.9123 12.9932 2.26311L22.2898 7.59314ZM6.71728 12.8688L6.71729 17.0527L11.517 19.9879C11.8248 20.1762 12.2164 20.1824 12.5306 20.0039L17.7609 17.0326V12.5947L12.9932 15.3281C12.3813 15.679 11.6187 15.679 11.0068 15.3281L6.71728 12.8688Z" fill="#B2B7B9"/>
</svg>
