<svg width="24" height="24" viewBox="0 0 24 24" fill="none" xmlns="http://www.w3.org/2000/svg">
<path fill-rule="evenodd" clip-rule="evenodd" d="M12.4512 4.27616C13.7099 3.09835 15.2329 2.00024 17.401 2.00024C19.1112 2.00024 20.7889 2.69537 21.998 3.9048C24.4813 6.38737 24.5071 10.5912 21.9981 13.0992L13.1581 21.9392C12.9706 22.1267 12.7163 22.2321 12.451 22.2321C12.1858 22.2321 11.9315 22.1267 11.7439 21.9392L2.90393 13.0992C0.394653 10.5899 0.394653 6.41424 2.90393 3.90496C4.12316 2.68573 5.77679 2.00078 7.50104 2.00078C9.6732 2.00078 11.1922 3.09722 12.4512 4.27616ZM17.401 4.00024C15.7157 4.00024 14.5743 4.96298 13.1581 6.37918C12.9706 6.56671 12.7163 6.67207 12.451 6.67207C12.1858 6.67207 11.9315 6.56671 11.7439 6.37918C10.325 4.96025 9.19044 4.00078 7.50104 4.00078C6.30722 4.00078 5.1623 4.47502 4.31815 5.31918C2.58992 7.04741 2.58992 9.95673 4.31815 11.685L12.451 19.8179L20.5839 11.685C22.3068 9.96286 22.2912 7.02566 20.5841 5.31934C19.7501 4.48499 18.5807 4.00024 17.401 4.00024Z" fill="#B2B7B9"/>
<path d="M13.1581 6.37918C14.5743 4.96298 15.7157 4.00024 17.401 4.00024C18.5807 4.00024 19.7501 4.48499 20.5841 5.31934C22.2912 7.02566 22.3068 9.96286 20.5839 11.685L12.451 19.8179L4.31815 11.685C2.58992 9.95673 2.58992 7.04741 4.31815 5.31918C5.1623 4.47502 6.30722 4.00078 7.50104 4.00078C9.19044 4.00078 10.325 4.96025 11.7439 6.37918C11.9315 6.56671 12.1858 6.67207 12.451 6.67207C12.7163 6.67207 12.9706 6.56671 13.1581 6.37918Z" fill="#B2B7B9"/>
</svg>
