<svg width="24" height="24" viewBox="0 0 24 24" fill="none" xmlns="http://www.w3.org/2000/svg">
<path d="M13.9 11.3C13.2594 10.8195 12.4975 9.79981 13.4453 9.16794C13.9693 8.81862 14.5014 9.07447 14.8724 9.49188C15.1571 9.81216 15.5707 9.99999 16 9.99999C16.4294 9.99999 16.8429 9.81216 17.1276 9.49188C17.5021 9.07063 18.0196 8.81116 18.5547 9.16794C19.4513 9.76565 18.6717 10.8712 18.1 11.3C17.6375 11.6469 16.9322 12 16 12C15.0679 12 14.3625 11.6469 13.9 11.3Z" fill="#B2B7B9"/>
<path d="M5.44581 9.16794C4.49801 9.79981 5.25988 10.8195 5.90051 11.3C6.36302 11.6469 7.06835 12 8.00051 12C8.93268 12 9.63801 11.6469 10.1005 11.3C10.6722 10.8712 11.4518 9.76565 10.5552 9.16794C10.02 8.81116 9.50255 9.07063 9.12811 9.49188C8.84341 9.81216 8.42986 9.99999 8.00051 9.99999C7.57117 9.99999 7.15762 9.81216 6.87292 9.49188C6.50189 9.07447 5.96979 8.81862 5.44581 9.16794Z" fill="#B2B7B9"/>
<path d="M8.66437 14.2526C8.25159 13.8857 7.61952 13.9229 7.2526 14.3356C6.88568 14.7484 6.92286 15.3805 7.33565 15.7474C8.66437 17.2812 10.3746 18 12 18C13.6255 18 15.3356 17.3438 16.6644 15.7474C17.0772 15.3805 17.1143 14.7484 16.7474 14.3356C16.3805 13.9229 15.7484 13.8857 15.3356 14.2526C13.8893 15.5383 12.8746 16 12 16C11.1255 16 10.1108 15.5383 8.66437 14.2526Z" fill="#B2B7B9"/>
<path fill-rule="evenodd" clip-rule="evenodd" d="M23 12C23 18.0751 18.0751 23 12 23C5.92487 23 1 18.0751 1 12C1 5.92487 5.92487 1 12 1C18.0751 1 23 5.92487 23 12ZM21 12C21 16.9706 16.9706 21 12 21C7.02944 21 3 16.9706 3 12C3 7.02944 7.02944 3 12 3C16.9706 3 21 7.02944 21 12Z" fill="#B2B7B9"/>
</svg>
