<svg width="24" height="24" viewBox="0 0 24 24" fill="none" xmlns="http://www.w3.org/2000/svg">
<path fill-rule="evenodd" clip-rule="evenodd" d="M15.0001 6.86169C15.0008 6.19054 14.9949 5.27629 14.6638 4.53136C14.4673 4.08917 14.1498 3.67967 13.6601 3.39403C13.1834 3.11596 12.6203 3 12 3C11.3797 3 10.8166 3.11596 10.3399 3.39403C9.85022 3.67967 9.53272 4.08917 9.33619 4.53136C9.00511 5.27629 8.99921 6.19054 8.99987 6.86169C7.47658 7.24891 6.01468 7.98166 5 9.22183C3.70305 10.807 3.21837 12.8261 3.06344 15L2 15C1.44772 15 1 15.4477 1 16V18C1 19.1046 1.89543 20 3 20H21C22.1046 20 23 19.1046 23 18V16C23 15.4477 22.5523 15 22 15H20.9366C20.7816 12.8261 20.297 10.807 19 9.22183C17.9853 7.98166 16.5234 7.24891 15.0001 6.86169ZM11.0032 6.53825C11.3424 6.51213 11.6762 6.5 12 6.5C12.3238 6.5 12.6576 6.51213 12.9968 6.53825C12.9904 6.15898 13.0578 5.3581 12.6524 5.12159C12.5666 5.07154 12.3797 5 12 5C11.6203 5 11.4334 5.07154 11.3476 5.12159C10.9422 5.35811 11.0096 6.15898 11.0032 6.53825ZM18.93 15C18.7795 13.0977 18.3622 11.6006 17.4521 10.4883C16.3314 9.1186 14.164 8.5 12 8.5C9.83596 8.5 7.66858 9.1186 6.54791 10.4883C5.63783 11.6006 5.22049 13.0977 5.06997 15L18.93 15ZM3 17L3 18H21V17H3Z" fill="#B2B7B9"/>
</svg>
