<svg width="24" height="24" viewBox="0 0 24 24" fill="none" xmlns="http://www.w3.org/2000/svg">
<path fill-rule="evenodd" clip-rule="evenodd" d="M2 4.03116C2 2.90938 2.89542 2 4 2H20C21.1046 2 22 2.90938 22 4.03116V15.2025C22 16.3243 21.1046 17.2337 20 17.2337H17.5V20.6948C17.5 20.9443 17.2208 21.0881 17.0226 20.9405L12.0455 17.2337H4C2.89542 17.2337 2 16.3243 2 15.2025V4.03116ZM6 11.1402C7.10458 11.1402 8 10.2308 8 9.10906C8 7.98728 7.10458 7.0779 6 7.0779C4.89542 7.0779 4 7.98728 4 9.10906C4 10.2308 4.89542 11.1402 6 11.1402ZM14 9.10906C14 10.2308 13.1046 11.1402 12 11.1402C10.8954 11.1402 10 10.2308 10 9.10906C10 7.98728 10.8954 7.0779 12 7.0779C13.1046 7.0779 14 7.98728 14 9.10906ZM18 11.1402C19.1046 11.1402 20 10.2308 20 9.10906C20 7.98728 19.1046 7.0779 18 7.0779C16.8954 7.0779 16 7.98728 16 9.10906C16 10.2308 16.8954 11.1402 18 11.1402Z" fill="#B2B7B9"/>
</svg>
