<svg width="24" height="24" viewBox="0 0 24 24" fill="none" xmlns="http://www.w3.org/2000/svg">
<path d="M19.8571 6.19579H18.0362C17.9948 5.94191 17.8998 5.69151 17.7477 5.4592L16.0964 2.93786C15.4884 2.00953 14.1974 1.72167 13.2128 2.29491L6.97322 5.9277C6.83895 6.00587 6.71732 6.09602 6.6089 6.19579H2.04762C1.46904 6.19579 1 6.63802 1 7.18355V21.0122C1 21.5578 1.46904 22 2.04762 22H19.8571C21.0143 22 21.9524 21.1155 21.9524 20.0245V17.0612H16.7143C15.5571 17.0612 14.619 16.1767 14.619 15.0857V13.1101C14.619 12.0191 15.5571 11.1346 16.7143 11.1346H21.9524V8.17131C21.9524 7.08026 21.0143 6.19579 19.8571 6.19579Z" fill="#B2B7B9"/>
<path fill-rule="evenodd" clip-rule="evenodd" d="M15.6667 14.0979C15.6667 13.0068 16.6047 12.1224 17.7619 12.1224H21.9524C22.531 12.1224 23 12.5646 23 13.1101V15.0857C23 15.6312 22.531 16.0734 21.9524 16.0734H17.7619C16.6047 16.0734 15.6667 15.1889 15.6667 14.0979ZM18.8095 14.0979C18.8095 14.6434 18.3405 15.0857 17.7619 15.0857C17.1833 15.0857 16.7143 14.6434 16.7143 14.0979C16.7143 13.5524 17.1833 13.1101 17.7619 13.1101C18.3405 13.1101 18.8095 13.5524 18.8095 14.0979Z" fill="#B2B7B9"/>
</svg>
