<svg width="24" height="24" viewBox="0 0 24 24" fill="none" xmlns="http://www.w3.org/2000/svg">
<path fill-rule="evenodd" clip-rule="evenodd" d="M17.753 6.01584C17.7088 5.76875 17.6142 5.52473 17.4663 5.29743L15.9359 2.94681C15.3333 2.02112 14.0721 1.72324 13.119 2.28148L7.12227 5.79366C7.01019 5.8593 6.90736 5.93386 6.81413 6.01584H2C1.44772 6.01584 1 6.46356 1 7.01584V20.9997C1 21.552 1.44771 21.9997 2 21.9997H19.9524C21.057 21.9997 21.9524 21.1043 21.9524 19.9997V16.0058H22.0001C22.5524 16.0058 23.0001 15.558 23.0001 15.0058V13.0098C23.0001 12.4575 22.5524 12.0098 22.0001 12.0098H21.9524V8.01584C21.9524 6.91127 21.057 6.01584 19.9524 6.01584H17.753ZM10.6959 6.01584H15.5501L14.2101 3.95758L10.6959 6.01584ZM3 8.01584V19.9997H19.9524V16.0058H17.6647C16.5613 16.0058 15.6667 15.1112 15.6667 14.0078C15.6667 12.9043 16.5613 12.0098 17.6647 12.0098H19.9524V8.01584H3ZM17.762 15.0068C18.3406 15.0068 18.8096 14.5595 18.8096 14.0078C18.8096 13.456 18.3406 13.0088 17.762 13.0088C17.1834 13.0088 16.7144 13.456 16.7144 14.0078C16.7144 14.5595 17.1834 15.0068 17.762 15.0068Z" fill="#B2B7B9"/>
</svg>
