<svg width="24" height="24" viewBox="0 0 24 24" fill="none" xmlns="http://www.w3.org/2000/svg">
<path d="M10 6C10 5.44772 10.4477 5 11 5H13C13.5523 5 14 5.44772 14 6C14 6.55228 13.5523 7 13 7H11C10.4477 7 10 6.55228 10 6Z" fill="#B2B7B9"/>
<path d="M11 8C10.4477 8 10 8.44771 10 9C10 9.55229 10.4477 10 11 10H13C13.5523 10 14 9.55229 14 9C14 8.44771 13.5523 8 13 8H11Z" fill="#B2B7B9"/>
<path d="M10 12C10 11.4477 10.4477 11 11 11H13C13.5523 11 14 11.4477 14 12C14 12.5523 13.5523 13 13 13H11C10.4477 13 10 12.5523 10 12Z" fill="#B2B7B9"/>
<path fill-rule="evenodd" clip-rule="evenodd" d="M2 23C1.44772 23 1 22.5523 1 22C1 21.4477 1.44772 21 2 21V9C2 8.44772 2.44772 8 3 8H7V2C7 1.44772 7.44772 1 8 1H16C16.5523 1 17 1.44772 17 2V8H21C21.5523 8 22 8.44772 22 9V21C22.5523 21 23 21.4477 23 22C23 22.5523 22.5523 23 22 23H2ZM9 3H15V21H14V17C14 16.4477 13.5523 16 13 16H11C10.4477 16 10 16.4477 10 17V21H9V3ZM4 21H7V10H4V21ZM17 21V10H20V21H17Z" fill="#B2B7B9"/>
</svg>
