<svg width="24" height="24" viewBox="0 0 24 24" fill="none" xmlns="http://www.w3.org/2000/svg">
<path fill-rule="evenodd" clip-rule="evenodd" d="M9.00001 5C9.00001 6.65685 7.65686 8 6.00001 8C4.34316 8 3.00001 6.65685 3.00001 5C3.00001 3.34315 4.34316 2 6.00001 2C7.65686 2 9.00001 3.34315 9.00001 5ZM7.00001 5C7.00001 5.55228 6.5523 6 6.00001 6C5.44773 6 5.00001 5.55228 5.00001 5C5.00001 4.44772 5.44773 4 6.00001 4C6.5523 4 7.00001 4.44772 7.00001 5Z" fill="#B2B7B9"/>
<path fill-rule="evenodd" clip-rule="evenodd" d="M21 9C21 10.6569 19.6569 12 18 12C16.3432 12 15 10.6569 15 9C15 7.34315 16.3432 6 18 6C19.6569 6 21 7.34315 21 9ZM19 9C19 9.55228 18.5523 10 18 10C17.4477 10 17 9.55228 17 9C17 8.44772 17.4477 8 18 8C18.5523 8 19 8.44772 19 9Z" fill="#B2B7B9"/>
<path fill-rule="evenodd" clip-rule="evenodd" d="M14.9283 14.443C15.6485 13.6026 16.662 13 18 13C19.338 13 20.3515 13.6026 21.0718 14.443C21.7666 15.2536 22.1924 16.2834 22.4615 17.2253C22.734 18.1788 22.867 19.1188 22.933 19.8114C23.0025 20.5408 23 21.268 23 22H13C13 21.2692 12.9976 20.5401 13.067 19.8114C13.133 19.1188 13.2661 18.1788 13.5385 17.2253C13.8076 16.2834 14.2334 15.2536 14.9283 14.443ZM20.9419 20C20.8828 19.3803 20.7659 18.5708 20.5385 17.7747C20.3076 16.9666 19.9834 16.2464 19.5533 15.7445C19.1485 15.2724 18.662 15 18 15C17.338 15 16.8515 15.2724 16.4468 15.7445C16.0166 16.2464 15.6924 16.9666 15.4615 17.7747C15.2341 18.5708 15.1172 19.3803 15.0581 20H20.9419Z" fill="#B2B7B9"/>
<path fill-rule="evenodd" clip-rule="evenodd" d="M2.92825 10.443C3.64854 9.60262 4.662 9 6.00001 9C7.33802 9 8.35148 9.60262 9.07177 10.443C9.76664 11.2536 10.1924 12.2834 10.4615 13.2253C10.734 14.1788 10.867 15.1188 10.933 15.8114C10.9662 16.1601 10.9829 16.4518 10.9914 16.6584L11 18H1.00001C1.00001 17.268 0.997555 16.5408 1.06702 15.8114C1.13298 15.1188 1.26606 14.1788 1.53849 13.2253C1.8076 12.2834 2.23338 11.2536 2.92825 10.443ZM8.53849 13.7747C8.76593 14.5708 8.88285 15.3803 8.94191 16H3.05811C3.11718 15.3803 3.23409 14.5708 3.46153 13.7747C3.69242 12.9666 4.01664 12.2464 4.44677 11.7445C4.85148 11.2724 5.33802 11 6.00001 11C6.662 11 7.14854 11.2724 7.55325 11.7445C7.98338 12.2464 8.3076 12.9666 8.53849 13.7747Z" fill="#B2B7B9"/>
</svg>
