<svg width="24" height="24" viewBox="0 0 24 24" fill="none" xmlns="http://www.w3.org/2000/svg">
<path d="M6 8C7.65685 8 9 6.65685 9 5C9 3.34315 7.65685 2 6 2C4.34315 2 3 3.34315 3 5C3 6.65685 4.34315 8 6 8Z" fill="#B2B7B9"/>
<path d="M18 12C19.6569 12 21 10.6569 21 9C21 7.34315 19.6569 6 18 6C16.3431 6 15 7.34315 15 9C15 10.6569 16.3431 12 18 12Z" fill="#B2B7B9"/>
<path d="M6 9C1 9 1 17 1 17H11C11 17 11 9 6 9Z" fill="#B2B7B9"/>
<path d="M13 21C13 21 13 13 18 13C23 13 23 21 23 21H13Z" fill="#B2B7B9"/>
</svg>
