<svg width="24" height="24" viewBox="0 0 24 24" fill="none" xmlns="http://www.w3.org/2000/svg">
<path fill-rule="evenodd" clip-rule="evenodd" d="M16 13.6553C16 15.7952 14.2091 17.53 12 17.53C9.79086 17.53 8 15.7952 8 13.6553C8 11.5154 9.79086 9.78066 12 9.78066C14.2091 9.78066 16 11.5154 16 13.6553ZM14 13.6553C14 14.7253 13.1046 15.5926 12 15.5926C10.8954 15.5926 10 14.7253 10 13.6553C10 12.5854 10.8954 11.718 12 11.718C13.1046 11.718 14 12.5854 14 13.6553Z" fill="#B2B7B9"/>
<path fill-rule="evenodd" clip-rule="evenodd" d="M6.5 6.36484L7.17483 3.7501C7.28879 3.30853 7.68706 3 8.1431 3H15.5674C16.0235 3 16.4217 3.30853 16.5357 3.7501L17.2105 6.36484H22C22.5523 6.36484 23 6.81255 23 7.36484V20C23 20.5523 22.5523 21 22 21H2C1.44772 21 1 20.5523 1 20V7.36484C1 6.81255 1.44772 6.36484 2 6.36484H6.5ZM8.92997 4.93733H14.7806L15.649 8.30217H21V19.0627H3V8.30217H8.06155L8.92997 4.93733Z" fill="#B2B7B9"/>
</svg>
