<svg width="24" height="24" viewBox="0 0 24 24" fill="none" xmlns="http://www.w3.org/2000/svg">
<path fill-rule="evenodd" clip-rule="evenodd" d="M12 9C13.6362 9 14.7647 7.77454 14.7647 6.5C14.7647 5.22546 13.6362 4 12 4C10.3639 4 9.2353 5.22546 9.2353 6.5C9.2353 7.77454 10.3639 9 12 9ZM9.30348 12.4594C10.1746 12.1554 11.0838 12 12 12C12.9162 12 13.8254 12.1554 14.6965 12.4594C14.9492 12.5476 15.1987 12.6482 15.4442 12.7612C16.5361 13.2638 17.5282 14.0003 18.364 14.9289C19.1997 15.8575 19.8626 16.9599 20.3149 18.1732C20.6521 19.0777 20.8673 20.0307 20.955 21.0013C21.0047 21.5514 20.5523 22 20 22H4.00001C3.44772 22 2.99531 21.5514 3.045 21.0013C3.13268 20.0307 3.34788 19.0777 3.68509 18.1732C4.13738 16.9599 4.80032 15.8575 5.63605 14.9289C6.47177 14.0003 7.46392 13.2638 8.55586 12.7612C8.80135 12.6482 9.05082 12.5476 9.30348 12.4594ZM9.47861 10.319C10.2099 10.7506 11.0741 11 12 11C12.9259 11 13.7901 10.7506 14.5214 10.319C15.8685 9.52398 16.7647 8.11083 16.7647 6.5C16.7647 4.01472 14.6315 2 12 2C9.36853 2 7.2353 4.01472 7.2353 6.5C7.2353 8.11083 8.13147 9.52398 9.47861 10.319ZM18.777 20C18.6898 19.6153 18.5775 19.2382 18.4409 18.8718C18.0732 17.8853 17.5388 17.0018 16.8774 16.2669C16.2163 15.5324 15.4431 14.9624 14.608 14.578C13.7737 14.194 12.8882 14 12 14C11.1118 14 10.2263 14.194 9.39202 14.578C8.55695 14.9624 7.78369 15.5324 7.12263 16.2669C6.46121 17.0018 5.92684 17.8854 5.55911 18.8718C5.42252 19.2382 5.31022 19.6153 5.22303 20H18.777Z" fill="#B2B7B9"/>
</svg>
