<svg width="24" height="24" viewBox="0 0 24 24" fill="none" xmlns="http://www.w3.org/2000/svg">
<path d="M12 11C14.6315 11 16.7647 8.98528 16.7647 6.5C16.7647 4.01472 14.6315 2 12 2C9.36853 2 7.23529 4.01472 7.23529 6.5C7.23529 8.98528 9.36853 11 12 11Z" fill="#B2B7B9"/>
<path d="M21 22C21 20.6868 20.7672 19.3864 20.3149 18.1732C19.8626 16.9599 19.1997 15.8575 18.364 14.9289C17.5282 14.0003 16.5361 13.2638 15.4442 12.7612C14.3522 12.2587 13.1819 12 12 12C10.8181 12 9.64778 12.2587 8.55585 12.7612C7.46392 13.2638 6.47177 14.0003 5.63604 14.9289C4.80031 15.8575 4.13738 16.9599 3.68508 18.1732C3.23279 19.3864 3 20.6868 3 22H21Z" fill="#B2B7B9"/>
</svg>
