<svg width="24" height="24" viewBox="0 0 24 24" fill="none" xmlns="http://www.w3.org/2000/svg">
<path fill-rule="evenodd" clip-rule="evenodd" d="M6.70708 5.29292C6.51848 5.11076 6.26588 5.00997 6.00368 5.01224C5.74148 5.01452 5.49067 5.11969 5.30526 5.3051C5.11985 5.49051 5.01469 5.74132 5.01241 6.00352C5.01013 6.26571 5.11092 6.51832 5.29308 6.70692L10.5861 11.9999L5.29308 17.2929C5.19757 17.3852 5.12139 17.4955 5.06898 17.6175C5.01657 17.7395 4.98898 17.8707 4.98783 18.0035C4.98668 18.1363 5.01198 18.268 5.06226 18.3909C5.11254 18.5138 5.18679 18.6254 5.28069 18.7193C5.37458 18.8132 5.48623 18.8875 5.60913 18.9377C5.73202 18.988 5.8637 19.0133 5.99648 19.0122C6.12926 19.011 6.26048 18.9834 6.38249 18.931C6.50449 18.8786 6.61483 18.8024 6.70708 18.7069L12.0001 13.4139L17.2931 18.7069C17.4817 18.8891 17.7343 18.9899 17.9965 18.9876C18.2587 18.9853 18.5095 18.8801 18.6949 18.6947C18.8803 18.5093 18.9855 18.2585 18.9878 17.9963C18.99 17.7341 18.8892 17.4815 18.7071 17.2929L13.4141 11.9999L18.7071 6.70692C18.8892 6.51832 18.99 6.26571 18.9878 6.00352C18.9855 5.74132 18.8803 5.49051 18.6949 5.3051C18.5095 5.11969 18.2587 5.01452 17.9965 5.01224C17.7343 5.00997 17.4817 5.11076 17.2931 5.29292L12.0001 10.5859L6.70708 5.29292Z" fill="#B2B7B9"/>
</svg>
