<svg width="24" height="24" viewBox="0 0 24 24" fill="none" xmlns="http://www.w3.org/2000/svg">
<path d="M12.1908 13.3846H7.01908V11.6923H12.0763C13.0496 11.6923 13.7557 11.4679 14.1947 11.0192C14.6336 10.5705 14.8531 9.96474 14.8531 9.20192C14.8531 8.50962 14.6399 7.92308 14.2137 7.44231C13.7875 6.95513 13.0751 6.71154 12.0763 6.71154H10.4924V19H8.4313V5H12.1908C13.7494 5 14.9389 5.38462 15.7595 6.15385C16.5865 6.92308 17 7.93269 17 9.18269C17 10.5096 16.5865 11.5417 15.7595 12.2788C14.9389 13.016 13.7494 13.3846 12.1908 13.3846ZM14.1565 14.9038V16.4808H7V14.9038H14.1565Z" fill="#B2B7B9"/>
</svg>
