<svg width="25" height="24" viewBox="0 0 25 24" fill="none" xmlns="http://www.w3.org/2000/svg">
<path fill-rule="evenodd" clip-rule="evenodd" d="M18 8C19.6569 8 21 6.65685 21 5C21 3.34315 19.6569 2 18 2C16.1018 2 14.7685 3.75566 15.0362 5.46728L8.08109 8.8392C7.54167 8.31955 6.80815 8 6 8C4.34315 8 3 9.34315 3 11C3 12.6569 4.34315 14 6 14C6.7347 14 7.40771 13.7359 7.92928 13.2975L15.0509 17.4469C14.7279 19.1802 16.0647 21 18 21C19.6569 21 21 19.6569 21 18C21 16.3431 19.6569 15 18 15C17.2572 15 16.5775 15.2699 16.0536 15.7171L8.94493 11.5751C9.00425 11.2696 9.01579 10.9398 8.97708 10.6274L15.9902 7.22731C16.5221 7.70758 17.2269 8 18 8ZM18 6C18.5523 6 19 5.55228 19 5C19 4.44772 18.5523 4 18 4C17.4477 4 17 4.44772 17 5C17 5.55228 17.4477 6 18 6ZM7 11C7 11.5523 6.55228 12 6 12C5.44772 12 5 11.5523 5 11C5 10.4477 5.44772 10 6 10C6.55228 10 7 10.4477 7 11ZM19 18C19 18.5523 18.5523 19 18 19C17.4477 19 17 18.5523 17 18C17 17.4477 17.4477 17 18 17C18.5523 17 19 17.4477 19 18Z" fill="#B2B7B9"/>
</svg>
