<svg width="16" height="16" viewBox="0 0 16 16" fill="none" xmlns="http://www.w3.org/2000/svg">
<path d="M8.63696 2.52625C8.26727 2.2208 7.73278 2.2208 7.36309 2.52625L4.35984 5.00757C3.93556 5.35811 3.87824 5.98329 4.2318 6.40394C4.58537 6.82459 5.21593 6.88143 5.64021 6.53088L8.00003 4.58117L10.3598 6.53088C10.7841 6.88143 11.4147 6.82459 11.7682 6.40394C12.1218 5.98329 12.0645 5.35811 11.6402 5.00757L8.63696 2.52625Z" fill="#B2B7B9"/>
<path d="M8.63696 13.4738C8.26727 13.7792 7.73278 13.7792 7.36309 13.4738L4.35984 10.9924C3.93556 10.6419 3.87824 10.0167 4.2318 9.59606C4.58537 9.17541 5.21593 9.11857 5.64021 9.46912L8.00003 11.4188L10.3598 9.46912C10.7841 9.11857 11.4147 9.17541 11.7682 9.59606C12.1218 10.0167 12.0645 10.6419 11.6402 10.9924L8.63696 13.4738Z" fill="#B2B7B9"/>
</svg>
