<svg width="16" height="16" viewBox="0 0 16 16" fill="none" xmlns="http://www.w3.org/2000/svg">
<g clip-path="url(#clip0_21_11188)">
<path fill-rule="evenodd" clip-rule="evenodd" d="M7.77281 0.359142C8.2254 0.253539 8.69109 0.473662 8.89677 0.890417L10.7243 4.59341L14.8116 5.19049C15.1882 5.2455 15.5009 5.50951 15.6183 5.87154C15.7357 6.23356 15.6374 6.63084 15.3647 6.89638L12.4076 9.77635L13.1056 13.8449C13.17 14.2201 13.0158 14.5993 12.7078 14.823C12.3998 15.0468 11.9915 15.0762 11.6545 14.899L8.00004 12.9769L4.34554 14.899C4.00862 15.0762 3.6003 15.0468 3.2923 14.823C2.98431 14.5993 2.83006 14.2201 2.89444 13.8449L3.59248 9.77635L0.635339 6.89638C0.362691 6.63084 0.264405 6.23356 0.381796 5.87154C0.499187 5.50951 0.811901 5.2455 1.18849 5.19049L5.27582 4.5934L7.08953 0.919316C7.21496 0.643538 7.46283 0.431471 7.77281 0.359142ZM8.00018 3.59281L6.83673 5.94964C6.69117 6.24449 6.40996 6.44895 6.08459 6.49648L3.48172 6.87671L5.36473 8.71059C5.60065 8.94035 5.70832 9.27152 5.65264 9.59608L5.20838 12.1854L7.53453 10.9619C7.82594 10.8087 8.17413 10.8087 8.46554 10.9619L10.7917 12.1854L10.3474 9.59608C10.2918 9.27152 10.3994 8.94035 10.6353 8.71059L12.5184 6.87671L9.91549 6.49648C9.59008 6.44895 9.30885 6.24445 9.1633 5.94955L8.00018 3.59281Z" fill="#B2B7B9"/>
</g>
<defs>
<clipPath id="clip0_21_11188">
<rect width="16" height="16" fill="white"/>
</clipPath>
</defs>
</svg>
