<svg width="16" height="16" viewBox="0 0 16 16" fill="none" xmlns="http://www.w3.org/2000/svg">
<g clip-path="url(#clip0_23_11455)">
<path fill-rule="evenodd" clip-rule="evenodd" d="M6.26074 2.53444C6.18283 2.61124 6.143 2.71056 6.143 2.81003V3.00003H9.858V2.81003C9.858 2.71027 9.81794 2.61066 9.73958 2.53377C9.66147 2.45711 9.55017 2.41003 9.43 2.41003H6.571C6.45279 2.41003 6.34054 2.45678 6.26074 2.53444ZM11.858 3.00003V2.81003C11.858 2.16779 11.5981 1.55541 11.1404 1.1063C10.6825 0.656957 10.0658 0.410034 9.43 0.410034H6.571C5.93354 0.410034 5.3181 0.659028 4.86194 1.10497L4.86058 1.1063C4.40294 1.55541 4.143 2.1678 4.143 2.81003V3.00003H2C1.44772 3.00003 1 3.44775 1 4.00003C1 4.55232 1.44772 5.00003 2 5.00003V13.6015C2.00045 13.9192 2.06433 14.2336 2.1879 14.5263C2.3111 14.8181 2.49118 15.0824 2.71761 15.3039C3.17358 15.7513 3.78888 16.0001 4.428 16.0001H11.572C12.2095 16.0001 12.8249 15.7511 13.2811 15.3052L13.2824 15.3039C13.7401 14.8547 14 14.2424 14 13.6001V5.00003C14.5523 5.00003 15 4.55232 15 4.00003C15 3.44775 14.5523 3.00003 14 3.00003H11.858ZM12 5.00003H4V13.5992C4.00013 13.6504 4.01047 13.7011 4.0304 13.7483C4.05039 13.7957 4.07963 13.8385 4.11641 13.8744L4.11839 13.8764C4.19642 13.9529 4.30712 14.0001 4.428 14.0001H11.572C11.6902 14.0001 11.8024 13.9534 11.8822 13.8758C11.9602 13.799 12 13.6996 12 13.6001V5.00003Z" fill="#B2B7B9"/>
</g>
<defs>
<clipPath id="clip0_23_11455">
<rect width="16" height="16" fill="white"/>
</clipPath>
</defs>
</svg>
